<svg width="43" height="34" viewBox="0 0 43 34" fill="none" xmlns="http://www.w3.org/2000/svg">
    <path
        d="M43 13.7363V14.9308C43 15.9203 42.1979 16.7224 41.2083 16.7224H40.6111L38.6617 30.3681C38.4095 32.1334 36.8977 33.4447 35.1144 33.4447H7.88557C6.10234 33.4447 4.59047 32.1334 4.33822 30.3681L2.38889 16.7224H1.79167C0.802144 16.7224 0 15.9203 0 14.9308V13.7363C0 12.7468 0.802144 11.9447 1.79167 11.9447H6.81886L14.7903 0.98406C15.5663 -0.0828769 17.0602 -0.318855 18.1273 0.457161C19.1943 1.23318 19.4303 2.7272 18.6542 3.79421L12.7266 11.9447H30.2734L24.3458 3.79414C23.5697 2.7272 23.8057 1.2331 24.8727 0.457086C25.9396 -0.318929 27.4338 -0.0830262 28.2098 0.983986L36.1811 11.9447H41.2083C42.1979 11.9447 43 12.7468 43 13.7363ZM23.2917 26.8752V18.5141C23.2917 17.5246 22.4895 16.7224 21.5 16.7224C20.5105 16.7224 19.7083 17.5246 19.7083 18.5141V26.8752C19.7083 27.8647 20.5105 28.6669 21.5 28.6669C22.4895 28.6669 23.2917 27.8647 23.2917 26.8752ZM31.6528 26.8752V18.5141C31.6528 17.5246 30.8506 16.7224 29.8611 16.7224C28.8716 16.7224 28.0694 17.5246 28.0694 18.5141V26.8752C28.0694 27.8647 28.8716 28.6669 29.8611 28.6669C30.8506 28.6669 31.6528 27.8647 31.6528 26.8752ZM14.9306 26.8752V18.5141C14.9306 17.5246 14.1284 16.7224 13.1389 16.7224C12.1494 16.7224 11.3472 17.5246 11.3472 18.5141V26.8752C11.3472 27.8647 12.1494 28.6669 13.1389 28.6669C14.1284 28.6669 14.9306 27.8647 14.9306 26.8752Z"
        fill="black" />
</svg>