<svg width="25" height="23" viewBox="0 0 25 23" fill="none" xmlns="http://www.w3.org/2000/svg">
<path d="M22.9219 13.0961L24.9737 4.13543C25.1218 3.48846 24.6263 2.87237 23.9579 2.87237H6.91007L6.51224 0.941949C6.41311 0.460787 5.98655 0.115242 5.49171 0.115242L1.04167 0.115242C0.466363 0.115242 0 0.578137 0 1.14916L0 1.83845C0 2.40947 0.466363 2.87237 1.04167 2.87237H4.07478L7.12374 17.6676C6.39431 18.0839 5.90278 18.8646 5.90278 19.7598C5.90278 21.0921 6.99097 22.1722 8.33333 22.1722C9.6757 22.1722 10.7639 21.0921 10.7639 19.7598C10.7639 19.0845 10.4841 18.4745 10.0337 18.0366H19.1329C18.6826 18.4745 18.4028 19.0845 18.4028 19.7598C18.4028 21.0921 19.491 22.1722 20.8333 22.1722C22.1757 22.1722 23.2639 21.0921 23.2639 19.7598C23.2639 18.8046 22.7045 17.9792 21.8933 17.5883L22.1327 16.5425C22.2809 15.8955 21.7854 15.2794 21.117 15.2794H9.46688L9.18281 13.9009H21.9061C22.3925 13.9009 22.8141 13.5668 22.9219 13.0961Z" fill="white"/>
</svg>
